<svg width="320" height="80" viewBox="0 0 320 80" fill="none" xmlns="http://www.w3.org/2000/svg" role="img" aria-labelledby="title desc">
  <title id="title">快页 QuickPage logo</title>
  <desc id="desc">A document stack and spark mark with the QuickPage wordmark.</desc>
  <defs>
    <linearGradient id="mark-bg" x1="12" y1="10" x2="68" y2="70" gradientUnits="userSpaceOnUse">
      <stop offset="0" stop-color="#111827"/>
      <stop offset="0.54" stop-color="#4F46E5"/>
      <stop offset="1" stop-color="#06B6D4"/>
    </linearGradient>
    <linearGradient id="page-accent" x1="28" y1="23" x2="55" y2="56" gradientUnits="userSpaceOnUse">
      <stop offset="0" stop-color="#FFFFFF"/>
      <stop offset="1" stop-color="#DFFAFE"/>
    </linearGradient>
  </defs>

  <g>
    <rect x="8" y="8" width="64" height="64" rx="16" fill="url(#mark-bg)"/>
    <path d="M21 29.5C21 25.9 23.9 23 27.5 23H46L59 36V53.5C59 57.1 56.1 60 52.5 60H27.5C23.9 60 21 57.1 21 53.5V29.5Z" fill="white" fill-opacity="0.2"/>
    <path d="M26 25.5C26 22.5 28.5 20 31.5 20H45.3L55 29.7V51.5C55 54.5 52.5 57 49.5 57H31.5C28.5 57 26 54.5 26 51.5V25.5Z" fill="url(#page-accent)"/>
    <path d="M45 20.5V28.2C45 29.8 46.3 31 47.8 31H55" stroke="#A5F3FC" stroke-width="2" stroke-linecap="round" stroke-linejoin="round"/>
    <path d="M32 36H48" stroke="#4F46E5" stroke-width="2.8" stroke-linecap="round"/>
    <path d="M32 43H45" stroke="#06B6D4" stroke-width="2.8" stroke-linecap="round"/>
    <path d="M48.3 43.2L44.2 52.5L51.3 49.1L48.5 60L58.7 45.2L51.8 48.1L54.5 39L48.3 43.2Z" fill="#F59E0B" stroke="#78350F" stroke-opacity="0.18" stroke-width="1" stroke-linejoin="round"/>
  </g>

  <g>
    <text x="91" y="38" fill="#111827" font-family="Inter, ui-sans-serif, system-ui, -apple-system, BlinkMacSystemFont, 'Segoe UI', 'Microsoft YaHei', sans-serif" font-size="26" font-weight="750" letter-spacing="0">快页</text>
    <text x="91" y="62" fill="#4B5563" font-family="Inter, ui-sans-serif, system-ui, -apple-system, BlinkMacSystemFont, 'Segoe UI', sans-serif" font-size="20" font-weight="650" letter-spacing="0">QuickPage</text>
    <path d="M203 55H288" stroke="#E5E7EB" stroke-width="2" stroke-linecap="round"/>
    <path d="M203 55H242" stroke="#06B6D4" stroke-width="2" stroke-linecap="round"/>
  </g>
</svg>
